<?xml version="1.0" encoding="UTF-8"?>
<svg width="110px" height="40px" viewBox="0 0 110 40" version="1.1" xmlns="http://www.w3.org/2000/svg" xmlns:xlink="http://www.w3.org/1999/xlink">
    <!-- Generator: Sketch 47.1 (45422) - http://www.bohemiancoding.com/sketch -->
    <title>Desktop</title>
    <desc>Created with Sketch.</desc>
    <defs></defs>
    <g id="Page-1" stroke="none" stroke-width="1" fill="none" fill-rule="evenodd">
        <g id="Desktop">
            <g id="megaphone">
                <g>
                    <ellipse id="Oval" fill="#FFD05B" fill-rule="nonzero" cx="20.5" cy="20" rx="20.5" ry="20"></ellipse>
                    <g id="Group" transform="translate(9.364198, 16.183206)" fill-rule="nonzero" fill="#324A5E">
                        <path d="M17.3961481,0.237090256 L15.4200494,0 L15.4200494,4.37826673 L17.3961481,4.14117647 C17.849679,4.08585541 18.1898272,3.71441401 18.1898272,3.27184553 L18.1898272,1.12222721 C18.1898272,0.663852717 17.849679,0.292411316 17.3961481,0.237090256 Z" id="Shape"></path>
                        <path d="M3.63634568,12.0837 L3.01274074,5.16856758 L0.0323950617,5.16856758 L1.18241975,12.3761114 C1.27960494,12.960934 1.79792593,13.3955995 2.40533333,13.3955995 L2.40533333,13.3955995 C3.12612346,13.3955995 3.69303704,12.7870678 3.63634568,12.0837 Z" id="Shape"></path>
                    </g>
                    <path d="M12.6611061,22.2900763 L9.42760467,22.2900763 C8.41713547,22.2900763 7.59259259,21.4899659 7.59259259,20.5094385 L7.59259259,15.8264394 C7.59259259,14.8459119 8.41713547,14.0458015 9.42760467,14.0458015 L12.6611061,14.0458015 C13.4937328,14.0458015 14.1727681,14.704716 14.1727681,15.5126706 L14.1727681,20.815363 C14.1808518,21.6311619 13.5018165,22.2900763 12.6611061,22.2900763 Z" id="Shape" fill="#FF7058" fill-rule="nonzero"></path>
                    <polygon id="Shape" fill="#324A5E" fill-rule="nonzero" points="14.4259259 21.1049558 22.7777778 24.4274809 22.7777778 11.9083969 14.4259259 15.2229735"></polygon>
                    <path d="M22.9074412,26.259542 L25.1789785,26.259542 C25.3953154,26.259542 25.5617284,26.092991 25.5617284,25.894716 L25.5617284,10.7465054 C25.5617284,10.5402994 25.3869948,10.3816794 25.1789785,10.3816794 L22.9074412,10.3816794 C22.6911043,10.3816794 22.5246914,10.5482304 22.5246914,10.7465054 L22.5246914,25.894716 C22.5246914,26.092991 22.699425,26.259542 22.9074412,26.259542 Z" id="Shape" fill="#FF7058" fill-rule="nonzero"></path>
                    <g id="Group" transform="translate(29.358025, 13.129771)" fill-rule="nonzero" fill="#FFFFFF">
                        <polygon id="Shape" points="4.00174292 1.17953068 0.071459695 2.69154651 0.071459695 1.971162 4.00174292 0.0395815663"></polygon>
                        <polygon id="Shape" points="4.00174292 5.92140232 0.071459695 5.71557817 0.071459695 4.98727735 4.00174292 4.78145321"></polygon>
                        <polygon id="Shape" points="4.00174292 10.663274 0.071459695 8.73960984 0.071459695 8.01130902 4.00174292 9.52332485"></polygon>
                    </g>
                </g>
            </g>
            <path d="M18,0 L31.3203125,6.0038585 L35.1191406,18.3541925 L31.3203125,32.0870867 L20.6953125,39.7999992 L18,39.7999992 L109.886719,39.7999992 C105.626302,30.9029507 103.496094,24.2696175 103.496094,19.8999996 C103.496094,15.5303817 105.626302,8.89704853 109.886719,0 L18,0 Z" id="Path" fill="#FFD05B"></path>
            <text id="My-Ads" font-family="SignPainter-HouseScript, SignPainter" font-size="24" font-style="condensed" font-weight="normal" fill="#D72323">
                <tspan x="41" y="26">My Ads</tspan>
            </text>
        </g>
    </g>
</svg>